<?xml version="1.0" encoding="UTF-8"?>
<svg width="870px" height="873px" viewBox="0 0 870 873" version="1.1" xmlns="http://www.w3.org/2000/svg" xmlns:xlink="http://www.w3.org/1999/xlink">
    <!-- Generator: Sketch 63.1 (92452) - https://sketch.com -->
    <title>logo-small</title>
    <desc>Created with Sketch.</desc>
    <g id="Page-1" stroke="none" stroke-width="1" fill="none" fill-rule="evenodd">
        <g id="logo-small" fill-rule="nonzero">
            <g id="Layer_3">
                <g id="Group">
                    <path d="M435,0.1 C194.8,0.1 0.1,194.8 0.1,435 C0.1,622.3 118.5,781.9 284.5,843.1 C287.8,813.2 299.5,785.9 317.2,763.5 C329.3,748.1 344.1,735 361.1,725.1 C363.2,720.1 365.7,714.5 368.2,708.5 C317.9,682.5 283.5,630.4 283.5,569.9 C283.5,518.2 308.8,472.2 347.5,444 C336.6,423.4 326.2,403.8 315.7,385.8 C297.6,354.3 269,326.1 247.3,306.9 C226.3,318.8 199.5,311.6 187.6,290.6 C175.7,269.6 182.9,242.8 203.9,230.9 C224.9,219 251.3,226.2 263.6,246.8 C263.6,247.2 263.6,247.2 263.6,247.2 C270.8,259.9 270.8,274.7 265.4,287 C288.2,306.5 322.2,339.5 343.2,376 C353,393 362.7,410.7 372.5,429.5 C392.8,420.1 415.2,414.7 438.7,414.7 C460,414.7 480.3,419 498.8,426.6 C508.6,408.1 518.3,390.4 527.7,373.8 C548.7,337.6 582.3,305.1 605.1,285.5 C599.7,273.2 599.7,258.7 606.9,246.1 C606.9,245.7 606.9,245.7 606.9,245.7 C619.2,225.1 645.6,217.8 666.2,229.8 C687.2,241.7 694.4,268.5 682.5,289.1 C670.6,310.1 644.1,317.3 623.2,305.4 C601.5,324.2 573.3,352.8 555.2,383.9 C545.1,401.3 534.9,420.4 524.4,440.3 C566.4,468.2 594.2,515.6 594.2,569.8 C594.2,632.8 557.3,686.7 503.8,711.3 C504.7,714 505.8,716.2 506.8,718.5 C553.8,740.8 587.9,785.9 594.7,839.6 C755.9,776 869.9,618.8 869.9,435 C869.9,194.8 675.2,0.1 435,0.1 Z" id="Path" fill="#CA0000"></path>
                    <path d="M284.8,843.3 C284.9,843.3 284.9,843.3 284.9,843.3 L284.8,843.3 Z" id="Path" fill="#FFFFFF"></path>
                    <path d="M284.8,843.3 C284.7,843.3 284.5,843.2 284.4,843.2 C284.6,843.2 284.7,843.2 284.8,843.3 Z" id="Path" fill="#FFFFFF"></path>
                </g>
            </g>
            <g id="Layer_2_1_" transform="translate(181.000000, 224.000000)" fill="#FFFFFF" stroke="#FFFFFF" stroke-width="5">
                <path d="M485.2,5.8 C464.6,-6.1 438.2,1.1 425.9,21.7 C425.9,21.7 425.9,21.7 425.9,22.1 C418.7,34.8 418.7,49.2 424.1,61.5 C401.3,81 367.7,113.6 346.7,149.8 C337.3,166.4 327.5,184.2 317.8,202.6 C299.3,195 279.1,190.7 257.7,190.7 C234.2,190.7 211.8,196.1 191.5,205.5 C181.7,186.7 172,169 162.2,152 C141.2,115.5 107.2,82.5 84.4,63 C89.8,50.7 89.8,35.9 82.6,23.2 C82.6,23.2 82.6,23.2 82.6,22.8 C70.3,2.2 43.9,-5.1 22.9,6.9 C1.9,18.8 -5.3,45.6 6.6,66.6 C18.5,87.6 45.3,94.8 66.3,82.9 C88,102.1 116.6,130.3 134.7,161.8 C145.2,179.9 155.7,199.4 166.5,220 C127.8,248.2 102.5,294.2 102.5,345.9 C102.5,406.3 136.9,458.4 187.2,484.5 C184.7,490.7 182.1,496.4 180,501.5 C138.4,525.9 109.2,568.9 103.6,619.1 C150.5,636.4 201.2,645.9 254.2,645.9 C310.4,645.9 364.1,635.2 413.4,615.8 C406.3,563 372.9,518.5 326.6,496 C325.5,493.1 324.1,490.6 323,487.3 C376.5,462.7 413.4,408.8 413.4,345.8 C413.4,291.5 385.5,244.1 343.6,216.3 C354.1,196.4 364.2,177.2 374.4,159.9 C392.5,128.8 420.7,100.2 442.4,81.4 C463.4,93.3 489.8,86.1 501.7,65.1 C513.4,44.6 506.2,17.8 485.2,5.8 Z" id="Path"></path>
            </g>
        </g>
    </g>
</svg>